<svg xmlns="http://www.w3.org/2000/svg" width="1200" height="560" viewBox="0 0 1200 560">
<style>text { font-family: -apple-system, BlinkMacSystemFont, 'Segoe UI', sans-serif; }</style>
<rect width="1200" height="560" fill="#fafafa"/>
<text x="600.0" y="32" text-anchor="middle" font-size="16" font-weight="600" fill="#111827">config60 · LEV3GOLD + LEV3NASDAQ + LEV3SOX</text>
<text x="600.0" y="54" text-anchor="middle" font-size="12" fill="#6b7280">1994-05-04 ~ 2025-12-31  |  baseline 37.2% / 59.5%</text>
<line x1="70" y1="460.5" x2="1130" y2="460.5" stroke="#e5e7eb" stroke-width="1"/><text x="62" y="464.5" text-anchor="end" font-size="11" fill="#6b7280">35%</text><line x1="70" y1="388.7" x2="1130" y2="388.7" stroke="#e5e7eb" stroke-width="1"/><text x="62" y="392.7" text-anchor="end" font-size="11" fill="#6b7280">40%</text><line x1="70" y1="316.9" x2="1130" y2="316.9" stroke="#e5e7eb" stroke-width="1"/><text x="62" y="320.9" text-anchor="end" font-size="11" fill="#6b7280">45%</text><line x1="70" y1="245.0" x2="1130" y2="245.0" stroke="#e5e7eb" stroke-width="1"/><text x="62" y="249.0" text-anchor="end" font-size="11" fill="#6b7280">50%</text><line x1="70" y1="173.2" x2="1130" y2="173.2" stroke="#e5e7eb" stroke-width="1"/><text x="62" y="177.2" text-anchor="end" font-size="11" fill="#6b7280">55%</text><line x1="70" y1="101.4" x2="1130" y2="101.4" stroke="#e5e7eb" stroke-width="1"/><text x="62" y="105.4" text-anchor="end" font-size="11" fill="#6b7280">60%</text>
<line x1="90.4" y1="80" x2="90.4" y2="500" stroke="#f3f4f6" stroke-width="1"/><text x="90.4" y="522" text-anchor="middle" font-size="11" fill="#6b7280">20%</text><line x1="158.3" y1="80" x2="158.3" y2="500" stroke="#f3f4f6" stroke-width="1"/><text x="158.3" y="522" text-anchor="middle" font-size="11" fill="#6b7280">21%</text><line x1="226.3" y1="80" x2="226.3" y2="500" stroke="#f3f4f6" stroke-width="1"/><text x="226.3" y="522" text-anchor="middle" font-size="11" fill="#6b7280">22%</text><line x1="294.2" y1="80" x2="294.2" y2="500" stroke="#f3f4f6" stroke-width="1"/><text x="294.2" y="522" text-anchor="middle" font-size="11" fill="#6b7280">23%</text><line x1="362.2" y1="80" x2="362.2" y2="500" stroke="#f3f4f6" stroke-width="1"/><text x="362.2" y="522" text-anchor="middle" font-size="11" fill="#6b7280">24%</text><line x1="430.1" y1="80" x2="430.1" y2="500" stroke="#f3f4f6" stroke-width="1"/><text x="430.1" y="522" text-anchor="middle" font-size="11" fill="#6b7280">25%</text><line x1="498.1" y1="80" x2="498.1" y2="500" stroke="#f3f4f6" stroke-width="1"/><text x="498.1" y="522" text-anchor="middle" font-size="11" fill="#6b7280">26%</text><line x1="566.0" y1="80" x2="566.0" y2="500" stroke="#f3f4f6" stroke-width="1"/><text x="566.0" y="522" text-anchor="middle" font-size="11" fill="#6b7280">27%</text><line x1="634.0" y1="80" x2="634.0" y2="500" stroke="#f3f4f6" stroke-width="1"/><text x="634.0" y="522" text-anchor="middle" font-size="11" fill="#6b7280">28%</text><line x1="701.9" y1="80" x2="701.9" y2="500" stroke="#f3f4f6" stroke-width="1"/><text x="701.9" y="522" text-anchor="middle" font-size="11" fill="#6b7280">29%</text><line x1="769.9" y1="80" x2="769.9" y2="500" stroke="#f3f4f6" stroke-width="1"/><text x="769.9" y="522" text-anchor="middle" font-size="11" fill="#6b7280">30%</text><line x1="837.8" y1="80" x2="837.8" y2="500" stroke="#f3f4f6" stroke-width="1"/><text x="837.8" y="522" text-anchor="middle" font-size="11" fill="#6b7280">31%</text><line x1="905.8" y1="80" x2="905.8" y2="500" stroke="#f3f4f6" stroke-width="1"/><text x="905.8" y="522" text-anchor="middle" font-size="11" fill="#6b7280">32%</text><line x1="973.7" y1="80" x2="973.7" y2="500" stroke="#f3f4f6" stroke-width="1"/><text x="973.7" y="522" text-anchor="middle" font-size="11" fill="#6b7280">33%</text><line x1="1041.7" y1="80" x2="1041.7" y2="500" stroke="#f3f4f6" stroke-width="1"/><text x="1041.7" y="522" text-anchor="middle" font-size="11" fill="#6b7280">34%</text>
<line x1="70" y1="500" x2="1130" y2="500" stroke="#374151" stroke-width="1.5"/>
<line x1="70" y1="80" x2="70" y2="500" stroke="#374151" stroke-width="1.5"/>
<rect x="87.3" y="429.6" width="6.1" height="70.4" fill="#9ca3af" opacity="0.35"/><rect x="104.3" y="429.6" width="6.1" height="70.4" fill="#9ca3af" opacity="0.35"/><rect x="121.3" y="425.2" width="6.1" height="74.8" fill="#9ca3af" opacity="0.35"/><rect x="138.3" y="407.6" width="6.1" height="92.4" fill="#9ca3af" opacity="0.35"/><rect x="155.3" y="434.0" width="6.1" height="66.0" fill="#9ca3af" opacity="0.35"/><rect x="172.3" y="425.2" width="6.1" height="74.8" fill="#9ca3af" opacity="0.35"/><rect x="189.3" y="429.6" width="6.1" height="70.4" fill="#9ca3af" opacity="0.35"/><rect x="206.3" y="434.0" width="6.1" height="66.0" fill="#9ca3af" opacity="0.35"/><rect x="223.2" y="438.4" width="6.1" height="61.6" fill="#9ca3af" opacity="0.35"/><rect x="240.2" y="429.6" width="6.1" height="70.4" fill="#9ca3af" opacity="0.35"/><rect x="257.2" y="451.6" width="6.1" height="48.4" fill="#9ca3af" opacity="0.35"/><rect x="274.2" y="451.6" width="6.1" height="48.4" fill="#9ca3af" opacity="0.35"/><rect x="291.2" y="447.2" width="6.1" height="52.8" fill="#9ca3af" opacity="0.35"/><rect x="308.2" y="447.2" width="6.1" height="52.8" fill="#9ca3af" opacity="0.35"/><rect x="325.2" y="429.6" width="6.1" height="70.4" fill="#9ca3af" opacity="0.35"/><rect x="342.2" y="451.6" width="6.1" height="48.4" fill="#9ca3af" opacity="0.35"/><rect x="359.1" y="447.2" width="6.1" height="52.8" fill="#9ca3af" opacity="0.35"/><rect x="376.1" y="451.6" width="6.1" height="48.4" fill="#9ca3af" opacity="0.35"/><rect x="393.1" y="442.8" width="6.1" height="57.2" fill="#9ca3af" opacity="0.35"/><rect x="410.1" y="460.4" width="6.1" height="39.6" fill="#9ca3af" opacity="0.35"/><rect x="427.1" y="434.0" width="6.1" height="66.0" fill="#9ca3af" opacity="0.35"/><rect x="444.1" y="434.0" width="6.1" height="66.0" fill="#9ca3af" opacity="0.35"/><rect x="461.1" y="434.0" width="6.1" height="66.0" fill="#9ca3af" opacity="0.35"/><rect x="478.0" y="434.0" width="6.1" height="66.0" fill="#9ca3af" opacity="0.35"/><rect x="495.0" y="451.6" width="6.1" height="48.4" fill="#9ca3af" opacity="0.35"/><rect x="512.0" y="451.6" width="6.1" height="48.4" fill="#9ca3af" opacity="0.35"/><rect x="529.0" y="447.2" width="6.1" height="52.8" fill="#9ca3af" opacity="0.35"/><rect x="546.0" y="442.8" width="6.1" height="57.2" fill="#9ca3af" opacity="0.35"/><rect x="563.0" y="456.0" width="6.1" height="44.0" fill="#9ca3af" opacity="0.35"/><rect x="580.0" y="456.0" width="6.1" height="44.0" fill="#9ca3af" opacity="0.35"/><rect x="597.0" y="464.8" width="6.1" height="35.2" fill="#9ca3af" opacity="0.35"/><rect x="613.9" y="460.4" width="6.1" height="39.6" fill="#9ca3af" opacity="0.35"/><rect x="630.9" y="469.2" width="6.1" height="30.8" fill="#9ca3af" opacity="0.35"/><rect x="647.9" y="464.8" width="6.1" height="35.2" fill="#9ca3af" opacity="0.35"/><rect x="664.9" y="460.4" width="6.1" height="39.6" fill="#9ca3af" opacity="0.35"/><rect x="681.9" y="442.8" width="6.1" height="57.2" fill="#9ca3af" opacity="0.35"/><rect x="698.9" y="460.4" width="6.1" height="39.6" fill="#9ca3af" opacity="0.35"/><rect x="715.9" y="464.8" width="6.1" height="35.2" fill="#9ca3af" opacity="0.35"/><rect x="732.9" y="451.6" width="6.1" height="48.4" fill="#9ca3af" opacity="0.35"/><rect x="749.8" y="451.6" width="6.1" height="48.4" fill="#9ca3af" opacity="0.35"/><rect x="766.8" y="447.2" width="6.1" height="52.8" fill="#9ca3af" opacity="0.35"/><rect x="783.8" y="464.8" width="6.1" height="35.2" fill="#9ca3af" opacity="0.35"/><rect x="800.8" y="460.4" width="6.1" height="39.6" fill="#9ca3af" opacity="0.35"/><rect x="817.8" y="473.6" width="6.1" height="26.4" fill="#9ca3af" opacity="0.35"/><rect x="834.8" y="469.2" width="6.1" height="30.8" fill="#9ca3af" opacity="0.35"/><rect x="851.8" y="473.6" width="6.1" height="26.4" fill="#9ca3af" opacity="0.35"/><rect x="868.8" y="469.2" width="6.1" height="30.8" fill="#9ca3af" opacity="0.35"/><rect x="885.7" y="473.6" width="6.1" height="26.4" fill="#9ca3af" opacity="0.35"/><rect x="902.7" y="473.6" width="6.1" height="26.4" fill="#9ca3af" opacity="0.35"/><rect x="919.7" y="473.6" width="6.1" height="26.4" fill="#9ca3af" opacity="0.35"/><rect x="936.7" y="478.0" width="6.1" height="22.0" fill="#9ca3af" opacity="0.35"/><rect x="953.7" y="478.0" width="6.1" height="22.0" fill="#9ca3af" opacity="0.35"/><rect x="970.7" y="478.0" width="6.1" height="22.0" fill="#9ca3af" opacity="0.35"/><rect x="987.7" y="478.0" width="6.1" height="22.0" fill="#9ca3af" opacity="0.35"/><rect x="1004.7" y="473.6" width="6.1" height="26.4" fill="#9ca3af" opacity="0.35"/><rect x="1021.6" y="473.6" width="6.1" height="26.4" fill="#9ca3af" opacity="0.35"/><rect x="1038.6" y="473.6" width="6.1" height="26.4" fill="#9ca3af" opacity="0.35"/><rect x="1055.6" y="473.6" width="6.1" height="26.4" fill="#9ca3af" opacity="0.35"/><rect x="1072.6" y="473.6" width="6.1" height="26.4" fill="#9ca3af" opacity="0.35"/><rect x="1089.6" y="473.6" width="6.1" height="26.4" fill="#9ca3af" opacity="0.35"/><rect x="1106.6" y="473.6" width="6.1" height="26.4" fill="#9ca3af" opacity="0.35"/>
<line x1="70" y1="428.2" x2="1130" y2="428.2" stroke="#2563eb" stroke-width="1" stroke-dasharray="6,4" opacity="0.55"/>
<line x1="70" y1="109.0" x2="1130" y2="109.0" stroke="#dc2626" stroke-width="1" stroke-dasharray="6,4" opacity="0.55"/>
<polyline fill="none" stroke="#2563eb" stroke-width="2.5" points="90.4,466.9 107.4,471.0 124.4,463.0 141.3,449.6 158.3,468.3 175.3,453.1 192.3,449.1 209.3,445.7 226.3,462.7 243.3,444.6 260.3,461.1 277.2,467.4 294.2,454.2 311.2,454.2 328.2,437.0 345.2,452.8 362.2,455.9 379.2,450.6 396.2,439.3 413.1,460.0 430.1,433.2 447.1,434.8 464.1,426.4 481.1,429.4 498.1,443.3 515.1,445.0 532.1,434.5 549.0,436.4 566.0,458.4 583.0,446.8 600.0,440.4 617.0,439.6 634.0,456.2 651.0,469.0 667.9,433.4 684.9,419.5 701.9,423.2 718.9,427.2 735.9,417.3 752.9,417.4 769.9,404.2 786.9,451.4 803.8,409.8 820.8,452.4 837.8,414.1 854.8,438.1 871.8,431.8 888.8,435.7 905.8,433.0 922.8,416.6 939.7,441.9 956.7,425.9 973.7,435.1 990.7,434.8 1007.7,411.3 1024.7,411.3 1041.7,391.9 1058.7,385.3 1075.6,385.1 1092.6,385.1 1109.6,385.1"/>
<polyline fill="none" stroke="#dc2626" stroke-width="2.5" points="90.4,359.3 107.4,359.8 124.4,358.0 141.3,347.6 158.3,350.8 175.3,393.4 192.3,393.4 209.3,393.4 226.3,372.2 243.3,366.9 260.3,339.0 277.2,339.0 294.2,339.0 311.2,341.9 328.2,338.9 345.2,338.9 362.2,343.7 379.2,343.7 396.2,343.7 413.1,348.3 430.1,348.3 447.1,348.3 464.1,348.3 481.1,348.3 498.1,348.3 515.1,348.3 532.1,365.7 549.0,377.1 566.0,377.1 583.0,366.3 600.0,366.3 617.0,366.3 634.0,347.6 651.0,350.8 667.9,350.8 684.9,351.6 701.9,352.2 718.9,306.5 735.9,353.4 752.9,353.4 769.9,292.9 786.9,292.9 803.8,372.6 820.8,367.9 837.8,371.8 854.8,371.8 871.8,371.8 888.8,371.8 905.8,371.8 922.8,365.0 939.7,363.6 956.7,363.7 973.7,360.5 990.7,360.4 1007.7,374.2 1024.7,374.2 1041.7,375.8 1058.7,276.1 1075.6,276.1 1092.6,276.1 1109.6,276.1"/>
<circle cx="1075.6" cy="385.1" r="5" fill="#2563eb" stroke="white" stroke-width="1.5"/>
<circle cx="175.3" cy="393.4" r="5" fill="#dc2626" stroke="white" stroke-width="1.5"/>
<text x="82" y="98" font-size="12" fill="#2563eb">● CAGR</text>
<text x="82" y="116" font-size="12" fill="#dc2626">● MDD</text>
<text x="82" y="134" font-size="11" fill="#6b7280">▭ rebal count (right scale)</text>
<text x="70" y="542" font-size="12" fill="#374151">Drift threshold (%)</text>
<text x="18" y="290.0" font-size="12" fill="#374151" transform="rotate(-90 18 290.0)" text-anchor="middle">CAGR / MDD (%)</text>
<text x="1195" y="94" font-size="11" fill="#6b7280" text-anchor="end">rebal#</text>
<text x="1195" y="108" font-size="11" fill="#6b7280" text-anchor="end">21</text>
<text x="1195" y="500" font-size="11" fill="#6b7280" text-anchor="end">0</text>
</svg>