<svg xmlns="http://www.w3.org/2000/svg" width="1200" height="560" viewBox="0 0 1200 560">
<style>text { font-family: -apple-system, BlinkMacSystemFont, 'Segoe UI', sans-serif; }</style>
<rect width="1200" height="560" fill="#fafafa"/>
<text x="600.0" y="32" text-anchor="middle" font-size="16" font-weight="600" fill="#111827">config60 · LEV3GOLD + LEV3NASDAQ + LEV3SOX</text>
<text x="600.0" y="54" text-anchor="middle" font-size="12" fill="#6b7280">1994-05-04 ~ 2026-07-02  |  baseline 38.5% / 59.5%</text>
<line x1="70" y1="463.2" x2="1130" y2="463.2" stroke="#e5e7eb" stroke-width="1"/><text x="62" y="467.2" text-anchor="end" font-size="11" fill="#6b7280">35%</text><line x1="70" y1="390.8" x2="1130" y2="390.8" stroke="#e5e7eb" stroke-width="1"/><text x="62" y="394.8" text-anchor="end" font-size="11" fill="#6b7280">40%</text><line x1="70" y1="318.4" x2="1130" y2="318.4" stroke="#e5e7eb" stroke-width="1"/><text x="62" y="322.4" text-anchor="end" font-size="11" fill="#6b7280">45%</text><line x1="70" y1="246.1" x2="1130" y2="246.1" stroke="#e5e7eb" stroke-width="1"/><text x="62" y="250.1" text-anchor="end" font-size="11" fill="#6b7280">50%</text><line x1="70" y1="173.7" x2="1130" y2="173.7" stroke="#e5e7eb" stroke-width="1"/><text x="62" y="177.7" text-anchor="end" font-size="11" fill="#6b7280">55%</text><line x1="70" y1="101.3" x2="1130" y2="101.3" stroke="#e5e7eb" stroke-width="1"/><text x="62" y="105.3" text-anchor="end" font-size="11" fill="#6b7280">60%</text>
<line x1="90.4" y1="80" x2="90.4" y2="500" stroke="#f3f4f6" stroke-width="1"/><text x="90.4" y="522" text-anchor="middle" font-size="11" fill="#6b7280">20%</text><line x1="158.3" y1="80" x2="158.3" y2="500" stroke="#f3f4f6" stroke-width="1"/><text x="158.3" y="522" text-anchor="middle" font-size="11" fill="#6b7280">21%</text><line x1="226.3" y1="80" x2="226.3" y2="500" stroke="#f3f4f6" stroke-width="1"/><text x="226.3" y="522" text-anchor="middle" font-size="11" fill="#6b7280">22%</text><line x1="294.2" y1="80" x2="294.2" y2="500" stroke="#f3f4f6" stroke-width="1"/><text x="294.2" y="522" text-anchor="middle" font-size="11" fill="#6b7280">23%</text><line x1="362.2" y1="80" x2="362.2" y2="500" stroke="#f3f4f6" stroke-width="1"/><text x="362.2" y="522" text-anchor="middle" font-size="11" fill="#6b7280">24%</text><line x1="430.1" y1="80" x2="430.1" y2="500" stroke="#f3f4f6" stroke-width="1"/><text x="430.1" y="522" text-anchor="middle" font-size="11" fill="#6b7280">25%</text><line x1="498.1" y1="80" x2="498.1" y2="500" stroke="#f3f4f6" stroke-width="1"/><text x="498.1" y="522" text-anchor="middle" font-size="11" fill="#6b7280">26%</text><line x1="566.0" y1="80" x2="566.0" y2="500" stroke="#f3f4f6" stroke-width="1"/><text x="566.0" y="522" text-anchor="middle" font-size="11" fill="#6b7280">27%</text><line x1="634.0" y1="80" x2="634.0" y2="500" stroke="#f3f4f6" stroke-width="1"/><text x="634.0" y="522" text-anchor="middle" font-size="11" fill="#6b7280">28%</text><line x1="701.9" y1="80" x2="701.9" y2="500" stroke="#f3f4f6" stroke-width="1"/><text x="701.9" y="522" text-anchor="middle" font-size="11" fill="#6b7280">29%</text><line x1="769.9" y1="80" x2="769.9" y2="500" stroke="#f3f4f6" stroke-width="1"/><text x="769.9" y="522" text-anchor="middle" font-size="11" fill="#6b7280">30%</text><line x1="837.8" y1="80" x2="837.8" y2="500" stroke="#f3f4f6" stroke-width="1"/><text x="837.8" y="522" text-anchor="middle" font-size="11" fill="#6b7280">31%</text><line x1="905.8" y1="80" x2="905.8" y2="500" stroke="#f3f4f6" stroke-width="1"/><text x="905.8" y="522" text-anchor="middle" font-size="11" fill="#6b7280">32%</text><line x1="973.7" y1="80" x2="973.7" y2="500" stroke="#f3f4f6" stroke-width="1"/><text x="973.7" y="522" text-anchor="middle" font-size="11" fill="#6b7280">33%</text><line x1="1041.7" y1="80" x2="1041.7" y2="500" stroke="#f3f4f6" stroke-width="1"/><text x="1041.7" y="522" text-anchor="middle" font-size="11" fill="#6b7280">34%</text>
<line x1="70" y1="500" x2="1130" y2="500" stroke="#374151" stroke-width="1.5"/>
<line x1="70" y1="80" x2="70" y2="500" stroke="#374151" stroke-width="1.5"/>
<rect x="87.3" y="428.6" width="6.1" height="71.4" fill="#9ca3af" opacity="0.35"/><rect x="104.3" y="428.6" width="6.1" height="71.4" fill="#9ca3af" opacity="0.35"/><rect x="121.3" y="424.4" width="6.1" height="75.6" fill="#9ca3af" opacity="0.35"/><rect x="138.3" y="407.6" width="6.1" height="92.4" fill="#9ca3af" opacity="0.35"/><rect x="155.3" y="432.8" width="6.1" height="67.2" fill="#9ca3af" opacity="0.35"/><rect x="172.3" y="424.4" width="6.1" height="75.6" fill="#9ca3af" opacity="0.35"/><rect x="189.3" y="428.6" width="6.1" height="71.4" fill="#9ca3af" opacity="0.35"/><rect x="206.3" y="432.8" width="6.1" height="67.2" fill="#9ca3af" opacity="0.35"/><rect x="223.2" y="437.0" width="6.1" height="63.0" fill="#9ca3af" opacity="0.35"/><rect x="240.2" y="432.8" width="6.1" height="67.2" fill="#9ca3af" opacity="0.35"/><rect x="257.2" y="449.6" width="6.1" height="50.4" fill="#9ca3af" opacity="0.35"/><rect x="274.2" y="453.8" width="6.1" height="46.2" fill="#9ca3af" opacity="0.35"/><rect x="291.2" y="445.4" width="6.1" height="54.6" fill="#9ca3af" opacity="0.35"/><rect x="308.2" y="445.4" width="6.1" height="54.6" fill="#9ca3af" opacity="0.35"/><rect x="325.2" y="428.6" width="6.1" height="71.4" fill="#9ca3af" opacity="0.35"/><rect x="342.2" y="449.6" width="6.1" height="50.4" fill="#9ca3af" opacity="0.35"/><rect x="359.1" y="445.4" width="6.1" height="54.6" fill="#9ca3af" opacity="0.35"/><rect x="376.1" y="449.6" width="6.1" height="50.4" fill="#9ca3af" opacity="0.35"/><rect x="393.1" y="441.2" width="6.1" height="58.8" fill="#9ca3af" opacity="0.35"/><rect x="410.1" y="458.0" width="6.1" height="42.0" fill="#9ca3af" opacity="0.35"/><rect x="427.1" y="432.8" width="6.1" height="67.2" fill="#9ca3af" opacity="0.35"/><rect x="444.1" y="432.8" width="6.1" height="67.2" fill="#9ca3af" opacity="0.35"/><rect x="461.1" y="432.8" width="6.1" height="67.2" fill="#9ca3af" opacity="0.35"/><rect x="478.0" y="432.8" width="6.1" height="67.2" fill="#9ca3af" opacity="0.35"/><rect x="495.0" y="449.6" width="6.1" height="50.4" fill="#9ca3af" opacity="0.35"/><rect x="512.0" y="449.6" width="6.1" height="50.4" fill="#9ca3af" opacity="0.35"/><rect x="529.0" y="445.4" width="6.1" height="54.6" fill="#9ca3af" opacity="0.35"/><rect x="546.0" y="441.2" width="6.1" height="58.8" fill="#9ca3af" opacity="0.35"/><rect x="563.0" y="458.0" width="6.1" height="42.0" fill="#9ca3af" opacity="0.35"/><rect x="580.0" y="453.8" width="6.1" height="46.2" fill="#9ca3af" opacity="0.35"/><rect x="597.0" y="462.2" width="6.1" height="37.8" fill="#9ca3af" opacity="0.35"/><rect x="613.9" y="458.0" width="6.1" height="42.0" fill="#9ca3af" opacity="0.35"/><rect x="630.9" y="466.4" width="6.1" height="33.6" fill="#9ca3af" opacity="0.35"/><rect x="647.9" y="466.4" width="6.1" height="33.6" fill="#9ca3af" opacity="0.35"/><rect x="664.9" y="458.0" width="6.1" height="42.0" fill="#9ca3af" opacity="0.35"/><rect x="681.9" y="441.2" width="6.1" height="58.8" fill="#9ca3af" opacity="0.35"/><rect x="698.9" y="458.0" width="6.1" height="42.0" fill="#9ca3af" opacity="0.35"/><rect x="715.9" y="466.4" width="6.1" height="33.6" fill="#9ca3af" opacity="0.35"/><rect x="732.9" y="453.8" width="6.1" height="46.2" fill="#9ca3af" opacity="0.35"/><rect x="749.8" y="453.8" width="6.1" height="46.2" fill="#9ca3af" opacity="0.35"/><rect x="766.8" y="445.4" width="6.1" height="54.6" fill="#9ca3af" opacity="0.35"/><rect x="783.8" y="466.4" width="6.1" height="33.6" fill="#9ca3af" opacity="0.35"/><rect x="800.8" y="458.0" width="6.1" height="42.0" fill="#9ca3af" opacity="0.35"/><rect x="817.8" y="474.8" width="6.1" height="25.2" fill="#9ca3af" opacity="0.35"/><rect x="834.8" y="466.4" width="6.1" height="33.6" fill="#9ca3af" opacity="0.35"/><rect x="851.8" y="474.8" width="6.1" height="25.2" fill="#9ca3af" opacity="0.35"/><rect x="868.8" y="470.6" width="6.1" height="29.4" fill="#9ca3af" opacity="0.35"/><rect x="885.7" y="474.8" width="6.1" height="25.2" fill="#9ca3af" opacity="0.35"/><rect x="902.7" y="474.8" width="6.1" height="25.2" fill="#9ca3af" opacity="0.35"/><rect x="919.7" y="470.6" width="6.1" height="29.4" fill="#9ca3af" opacity="0.35"/><rect x="936.7" y="479.0" width="6.1" height="21.0" fill="#9ca3af" opacity="0.35"/><rect x="953.7" y="479.0" width="6.1" height="21.0" fill="#9ca3af" opacity="0.35"/><rect x="970.7" y="479.0" width="6.1" height="21.0" fill="#9ca3af" opacity="0.35"/><rect x="987.7" y="479.0" width="6.1" height="21.0" fill="#9ca3af" opacity="0.35"/><rect x="1004.7" y="474.8" width="6.1" height="25.2" fill="#9ca3af" opacity="0.35"/><rect x="1021.6" y="474.8" width="6.1" height="25.2" fill="#9ca3af" opacity="0.35"/><rect x="1038.6" y="474.8" width="6.1" height="25.2" fill="#9ca3af" opacity="0.35"/><rect x="1055.6" y="474.8" width="6.1" height="25.2" fill="#9ca3af" opacity="0.35"/><rect x="1072.6" y="474.8" width="6.1" height="25.2" fill="#9ca3af" opacity="0.35"/><rect x="1089.6" y="474.8" width="6.1" height="25.2" fill="#9ca3af" opacity="0.35"/><rect x="1106.6" y="474.8" width="6.1" height="25.2" fill="#9ca3af" opacity="0.35"/>
<line x1="70" y1="412.5" x2="1130" y2="412.5" stroke="#2563eb" stroke-width="1" stroke-dasharray="6,4" opacity="0.55"/>
<line x1="70" y1="109.0" x2="1130" y2="109.0" stroke="#dc2626" stroke-width="1" stroke-dasharray="6,4" opacity="0.55"/>
<polyline fill="none" stroke="#2563eb" stroke-width="2.5" points="90.4,463.8 107.4,471.0 124.4,463.1 141.3,448.6 158.3,459.0 175.3,454.7 192.3,444.3 209.3,445.7 226.3,453.8 243.3,446.4 260.3,457.4 277.2,468.4 294.2,454.1 311.2,454.1 328.2,432.5 345.2,452.6 362.2,451.9 379.2,446.7 396.2,438.9 413.1,449.2 430.1,433.5 447.1,435.1 464.1,426.6 481.1,429.6 498.1,431.4 515.1,440.3 532.1,423.4 549.0,432.4 566.0,459.7 583.0,434.1 600.0,439.9 617.0,439.9 634.0,443.7 651.0,469.0 667.9,420.9 684.9,406.8 701.9,409.7 718.9,427.5 735.9,415.2 752.9,415.3 769.9,391.3 786.9,450.9 803.8,396.9 820.8,451.1 837.8,400.4 854.8,434.3 871.8,432.1 888.8,434.3 905.8,432.5 922.8,412.8 939.7,440.6 956.7,427.6 973.7,435.4 990.7,435.1 1007.7,411.7 1024.7,411.7 1041.7,395.0 1058.7,387.2 1075.6,388.2 1092.6,388.2 1109.6,388.2"/>
<polyline fill="none" stroke="#dc2626" stroke-width="2.5" points="90.4,361.2 107.4,361.7 124.4,359.9 141.3,349.4 158.3,352.6 175.3,395.6 192.3,395.6 209.3,395.6 226.3,374.2 243.3,368.8 260.3,340.7 277.2,340.7 294.2,340.7 311.2,343.6 328.2,340.6 345.2,340.6 362.2,345.5 379.2,345.5 396.2,345.5 413.1,350.2 430.1,350.2 447.1,350.2 464.1,350.2 481.1,350.2 498.1,350.2 515.1,350.2 532.1,367.7 549.0,379.1 566.0,379.1 583.0,368.2 600.0,368.2 617.0,368.2 634.0,349.4 651.0,352.6 667.9,352.6 684.9,353.5 701.9,354.1 718.9,308.0 735.9,355.2 752.9,355.2 769.9,294.3 786.9,294.3 803.8,374.6 820.8,369.8 837.8,373.7 854.8,373.7 871.8,373.7 888.8,373.7 905.8,373.7 922.8,366.9 939.7,365.5 956.7,365.6 973.7,362.5 990.7,362.3 1007.7,376.2 1024.7,376.2 1041.7,377.8 1058.7,277.3 1075.6,277.3 1092.6,277.3 1109.6,277.3"/>
<circle cx="1058.7" cy="387.2" r="5" fill="#2563eb" stroke="white" stroke-width="1.5"/>
<circle cx="175.3" cy="395.6" r="5" fill="#dc2626" stroke="white" stroke-width="1.5"/>
<text x="82" y="98" font-size="12" fill="#2563eb">● CAGR</text>
<text x="82" y="116" font-size="12" fill="#dc2626">● MDD</text>
<text x="82" y="134" font-size="11" fill="#6b7280">▭ rebal count (right scale)</text>
<text x="70" y="542" font-size="12" fill="#374151">Drift threshold (%)</text>
<text x="18" y="290.0" font-size="12" fill="#374151" transform="rotate(-90 18 290.0)" text-anchor="middle">CAGR / MDD (%)</text>
<text x="1195" y="94" font-size="11" fill="#6b7280" text-anchor="end">rebal#</text>
<text x="1195" y="108" font-size="11" fill="#6b7280" text-anchor="end">22</text>
<text x="1195" y="500" font-size="11" fill="#6b7280" text-anchor="end">0</text>
</svg>